<?xml version="1.0" encoding="utf-8"?>
<svg version="1.1" xmlns:xlink="http://www.w3.org/1999/xlink" width="20px" height="24px" xmlns="http://www.w3.org/2000/svg">
  <g transform="matrix(1 0 0 1 -1786 -97 )">
    <path d="M 16.666666666666668 6.857142857142857  C 16.666666666666668 8.169642857142858  16.32378472222222 9.38392857142857  15.638020833333332 10.5  C 16.046006944444446 10.624999999999998  16.434461805555557 10.794642857142858  16.803385416666668 11.00892857142857  C 17.17230902777778 11.223214285714286  17.55859375 11.549107142857142  17.962239583333332 11.986607142857142  C 18.365885416666668 12.424107142857142  18.7109375 12.939732142857142  18.997395833333332 13.533482142857142  C 19.283854166666668 14.127232142857142  19.522569444444446 14.895089285714283  19.713541666666668 15.837053571428573  C 19.904513888888886 16.779017857142858  20 17.83482142857143  20 19.004464285714285  C 20 20.37946428571429  19.56597222222222 21.55580357142857  18.697916666666668 22.533482142857142  C 17.829861111111114 23.511160714285715  16.783854166666668 24  15.559895833333332 24  L 4.440104166666667 24  C 3.216145833333333 24  2.1701388888888893 23.511160714285715  1.3020833333333335 22.533482142857142  C 0.4340277777777777 21.55580357142857  0 20.37946428571429  0 19.004464285714285  C 0 17.83482142857143  0.0954861111111111 16.779017857142858  0.2864583333333333 15.837053571428573  C 0.4774305555555556 14.895089285714283  0.7161458333333333 14.127232142857142  1.0026041666666667 13.533482142857142  C 1.2890625 12.939732142857142  1.6341145833333335 12.424107142857142  2.0377604166666665 11.986607142857142  C 2.44140625 11.549107142857142  2.8276909722222228 11.223214285714286  3.196614583333333 11.00892857142857  C 3.5655381944444446 10.794642857142858  3.953993055555556 10.624999999999998  4.361979166666667 10.5  C 3.6762152777777786 9.38392857142857  3.333333333333333 8.169642857142858  3.333333333333333 6.857142857142857  C 3.333333333333333 5.928571428571426  3.509114583333333 5.0424107142857135  3.860677083333333 4.1986607142857135  C 4.212239583333333 3.3549107142857135  4.6875 2.625  5.286458333333334 2.0089285714285703  C 5.885416666666666 1.3928571428571432  6.595052083333334 0.9040178571428568  7.415364583333334 0.5424107142857135  C 8.235677083333334 0.1808035714285703  9.097222222222223 0  10 0  C 10.902777777777779 0  11.764322916666668 0.1808035714285703  12.584635416666668 0.5424107142857135  C 13.404947916666668 0.9040178571428568  14.114583333333332 1.3928571428571432  14.713541666666668 2.0089285714285703  C 15.3125 2.625  15.787760416666668 3.3549107142857135  16.139322916666668 4.1986607142857135  C 16.490885416666668 5.0424107142857135  16.666666666666668 5.928571428571426  16.666666666666668 6.857142857142857  Z M 13.53515625 3.2209821428571432  C 12.558593750000002 2.2165178571428568  11.380208333333336 1.7142857142857135  10 1.7142857142857135  C 8.619791666666666 1.7142857142857135  7.44140625 2.2165178571428568  6.46484375 3.2209821428571432  C 5.48828125 4.22544642857143  5 5.4375  5 6.857142857142857  C 5 8.276785714285714  5.48828125 9.488839285714286  6.46484375 10.49330357142857  C 7.44140625 11.497767857142858  8.619791666666666 12  10 12  C 11.380208333333336 12  12.558593750000002 11.497767857142858  13.53515625 10.49330357142857  C 14.51171875 9.488839285714286  15 8.276785714285714  15 6.857142857142857  C 15 5.4375  14.51171875 4.22544642857143  13.53515625 3.2209821428571432  Z M 4.440104166666667 22  L 15.559895833333332 22  C 16.32378472222222 22.285714285714285  16.97699652777778 21.966517857142858  17.51953125 21.328125  C 18.06206597222222 20.689732142857142  18.333333333333332 19.915178571428573  18.333333333333332 19.004464285714285  C 18.333333333333332 16.87053571428571  17.99262152777778 15.1875  17.311197916666668 13.955357142857142  C 16.629774305555557 12.723214285714286  15.651041666666668 12.075892857142856  14.375 12.013392857142858  C 13.116319444444445 13.147321428571429  11.65798611111111 13.714285714285714  10 13.714285714285714  C 8.34201388888889 13.714285714285714  6.883680555555557 13.147321428571429  5.625 12.013392857142858  C 4.348958333333333 12.075892857142856  3.3702256944444446 12.723214285714286  2.688802083333333 13.955357142857142  C 2.0073784722222223 15.1875  1.6666666666666665 16.87053571428571  1.6666666666666665 19.004464285714285  C 1.6666666666666665 19.915178571428573  1.937934027777778 20.689732142857142  2.48046875 21.328125  C 3.0230034722222228 21.966517857142858  3.6762152777777786 22.285714285714285  4.440104166666667 22  Z " fill-rule="nonzero" fill="#000000" stroke="none" transform="matrix(1 0 0 1 1786 97 )" />
  </g>
</svg>