<?xml version="1.0" encoding="utf-8"?>
<svg version="1.1" xmlns:xlink="http://www.w3.org/1999/xlink" width="30px" height="24px" xmlns="http://www.w3.org/2000/svg">
  <g transform="matrix(1 0 0 1 -1833 -97 )">
    <path d="M 2.5 0  L 27.5 0  C 28.1875 0  28.776041666666668 0.2447916666666643  29.265625 0.7343750000000009  C 29.755208333333336 1.2239583333333321  30.000000000000007 1.8125000000000009  30 2.499999999999999  L 30 21.5  C 30.000000000000007 22.1875  29.755208333333336 22.776041666666668  29.265625 23.265625  C 28.776041666666668 23.755208333333332  28.1875 24  27.5 24  L 2.5 24  C 1.8125 24  1.2239583333333335 23.755208333333332  0.734375 23.265625  C 0.24479166666666669 22.776041666666668  0 22.1875  0 21.5  L 0 2.499999999999999  C 0 1.8125000000000009  0.24479166666666669 1.2239583333333321  0.734375 0.7343750000000009  C 1.2239583333333335 0.2447916666666643  1.8125 0  2.5 0  Z M 27.5 2  L 2.5 2  C 2.3645833333333335 2.000000000000001  2.2473958333333335 2.0494791666666643  2.1484375 2.148437499999999  C 2.049479166666667 2.2473958333333313  2 2.3645833333333313  2 2.499999999999999  L 2 6  L 28 6  L 28 2.499999999999999  C 28 2.3645833333333313  27.950520833333336 2.2473958333333313  27.8515625 2.148437499999999  C 27.75260416666667 2.0494791666666643  27.63541666666667 2.000000000000001  27.5 2  Z M 2.5 22  L 27.5 22  C 27.63541666666667 22  27.75260416666667 21.950520833333332  27.8515625 21.8515625  C 27.950520833333336 21.752604166666668  28 21.635416666666668  28 21.5  L 28 12  L 2 12  L 2 21.5  C 2 21.635416666666668  2.049479166666667 21.752604166666668  2.1484375 21.8515625  C 2.2473958333333335 21.950520833333332  2.3645833333333335 22  2.5 22  Z M 8 20  L 4 20  L 4 18  L 8 18  L 8 20  Z M 16 20  L 10 20  L 10 18  L 16 18  L 16 20  Z " fill-rule="nonzero" fill="#000000" stroke="none" transform="matrix(1 0 0 1 1833 97 )" />
  </g>
</svg>