<?xml version="1.0" encoding="utf-8"?>
<svg version="1.1" xmlns:xlink="http://www.w3.org/1999/xlink" width="23px" height="22px" xmlns="http://www.w3.org/2000/svg">
  <g transform="matrix(1 0 0 1 -1735 -99 )">
    <path d="M 18.94419642857143 11.802083333333332  C 20.552827380952383 10.006944444444443  21.357142857142858 8.307291666666666  21.357142857142858 6.703125  C 21.357142857142858 5.9296875  21.265159970238095 5.2469618055555545  21.08119419642857 4.654947916666666  C 20.897228422619047 4.062934027777775  20.66192336309524 3.5926649305555545  20.375279017857142 3.244140625  C 20.08863467261905 2.895616319444443  19.73995535714286 2.6115451388888884  19.32924107142857 2.391927083333334  C 18.91852678571429 2.172309027777775  18.516369047619047 2.0243055555555545  18.122767857142858 1.9479166666666659  C 17.729166666666668 1.8715277777777748  17.309895833333336 1.8333333333333341  16.864955357142858 1.8333333333333341  C 16.420014880952383 1.8333333333333341  15.940848214285714 1.955078125  15.427455357142858 2.198567708333334  C 14.9140625 2.442057291666666  14.441313244047619 2.7476128472222205  14.009207589285714 3.115234375  C 13.577101934523812 3.482855902777775  13.20703125 3.826605902777775  12.898995535714286 4.146484375  C 12.590959821428573 4.4663628472222205  12.334263392857144 4.759982638888888  12.12890625 5.02734375  C 11.974888392857144 5.237413194444443  11.765252976190478 5.342447916666666  11.5 5.342447916666666  C 11.234747023809524 5.342447916666666  11.025111607142856 5.237413194444443  10.87109375 5.02734375  C 10.665736607142856 4.759982638888888  10.409040178571429 4.4663628472222205  10.101004464285715 4.146484375  C 9.79296875 3.826605902777775  9.422898065476192 3.482855902777775  8.990792410714285 3.115234375  C 8.558686755952381 2.7476128472222205  8.0859375 2.442057291666666  7.572544642857143 2.198567708333334  C 7.059151785714286 1.955078125  6.57998511904762 1.8333333333333341  6.135044642857143 1.8333333333333341  C 5.690104166666667 1.8333333333333341  5.270833333333335 1.8715277777777748  4.877232142857142 1.9479166666666659  C 4.483630952380953 2.0243055555555545  4.081473214285714 2.172309027777775  3.6707589285714284 2.391927083333334  C 3.260044642857143 2.6115451388888884  2.9113653273809526 2.895616319444443  2.624720982142857 3.244140625  C 2.338076636904762 3.5926649305555545  2.1027715773809526 4.062934027777775  1.9188058035714286 4.654947916666666  C 1.734840029761905 5.2469618055555545  1.6428571428571428 5.9296875  1.6428571428571428 6.703125  C 1.6428571428571428 8.307291666666666  2.4428943452380953 10.00217013888889  4.04296875 11.787760416666668  L 11.5 19.80859375  L 18.94419642857143 11.802083333333332  Z M 21.36997767857143 1.7760416666666659  C 22.456659226190478 2.960069444444443  23 4.6024305555555545  23 6.703125  C 23 8.813368055555554  22.020275297619047 10.961805555555554  20.060825892857142 13.1484375  L 12.064732142857142 21.7421875  C 11.910714285714286 21.9140625  11.722470238095239 22  11.5 22  C 11.277529761904763 22  11.089285714285715 21.9140625  10.935267857142856 21.7421875  L 2.9263392857142856 13.119791666666668  C 2.8407738095238098 13.043402777777777  2.723121279761905 12.919270833333332  2.573381696428571 12.747395833333332  C 2.423642113095238 12.575520833333332  2.186197916666667 12.262803819444446  1.8610491071428572 11.809244791666668  C 1.5359002976190477 11.355685763888886  1.2449776785714286 10.89019097222222  0.98828125 10.412760416666666  C 0.7315848214285714 9.93532986111111  0.5026971726190477 9.35763888888889  0.3016183035714286 8.6796875  C 0.10053943452380952 8.001736111111109  0 7.342881944444443  0 6.703125  C 0 4.6024305555555545  0.5433407738095237 2.960069444444443  1.6300223214285714 1.7760416666666659  C 2.7167038690476195 0.5920138888888886  4.218377976190476 0  6.135044642857143 0  C 6.665550595238095 0  7.206752232142857 0.10264756944444309  7.758649553571429 0.30794270833333415  C 8.310546875 0.5132378472222203  8.823939732142856 0.7901475694444431  9.298828125 1.138671875  C 9.773716517857144 1.4871961805555545  10.18229166666667 1.814236111111109  10.524553571428571 2.119791666666666  C 10.866815476190478 2.4253472222222205  11.191964285714285 2.75  11.5 3.09375  C 11.808035714285714 2.75  12.133184523809526 2.4253472222222205  12.475446428571429 2.119791666666666  C 12.817708333333336 1.814236111111109  13.226283482142858 1.4871961805555545  13.701171875 1.138671875  C 14.176060267857142 0.7901475694444431  14.689453125 0.5132378472222203  15.241350446428571 0.30794270833333415  C 15.793247767857142 0.10264756944444309  16.334449404761905 0  16.864955357142858 0  C 18.781622023809526 0  20.283296130952383 0.5920138888888886  21.36997767857143 1.7760416666666659  Z " fill-rule="nonzero" fill="#000000" stroke="none" transform="matrix(1 0 0 1 1735 99 )" />
  </g>
</svg>