<?xml version="1.0" encoding="utf-8"?>
<svg version="1.1" xmlns:xlink="http://www.w3.org/1999/xlink" width="19px" height="30px" xmlns="http://www.w3.org/2000/svg">
  <g transform="matrix(1 0 0 1 -1687 -96 )">
    <path d="M 18.24956597222222 5.901227678571429  C 18.749855324074076 7.08984375  19 8.337053571428571  19 9.642857142857142  C 19 12.109374999999998  18.189091435185187 14.255022321428571  16.567274305555557 16.079799107142858  C 14.945457175925927 17.904575892857142  12.941550925925927 18.950892857142858  10.555555555555555 19.21875  L 10.555555555555555 29.46428571428571  C 10.555555555555555 29.620535714285715  10.506076388888888 29.74888392857143  10.407118055555555 29.849330357142858  C 10.308159722222221 29.94977678571429  10.181712962962964 30  10.027777777777779 30  L 8.972222222222221 30  C 8.818287037037038 30  8.691840277777779 29.94977678571429  8.592881944444445 29.849330357142858  C 8.49392361111111 29.74888392857143  8.444444444444445 29.620535714285715  8.444444444444445 29.46428571428571  L 8.444444444444445 19.21875  C 6.058449074074074 18.950892857142858  4.054542824074074 17.904575892857142  2.4327256944444446 16.079799107142858  C 0.8109085648148148 14.255022321428571  0 12.109374999999998  0 9.642857142857142  C 0 8.337053571428571  0.25014467592592593 7.08984375  0.7504340277777778 5.901227678571429  C 1.2507233796296298 4.712611607142858  1.9269386574074077 3.6858258928571406  2.779079861111111 2.8208705357142874  C 3.6312210648148153 1.9559151785714268  4.642795138888889 1.2695312499999978  5.813802083333333 0.76171875  C 6.9848090277777795 0.2539062500000022  8.213541666666668 0  9.5 0  C 10.786458333333334 0  12.015190972222221 0.2539062500000022  13.186197916666666 0.76171875  C 14.357204861111112 1.2695312499999978  15.368778935185187 1.9559151785714268  16.22092013888889 2.8208705357142874  C 17.073061342592595 3.6858258928571406  17.74927662037037 4.712611607142858  18.24956597222222 5.901227678571429  Z M 4.279947916666666 14.94140625  C 5.72583912037037 16.409040178571427  7.465856481481482 17.142857142857142  9.5 17.142857142857142  C 11.534143518518519 17.142857142857142  13.27416087962963 16.409040178571427  14.720052083333334 14.94140625  C 16.165943287037038 13.47377232142857  16.88888888888889 11.707589285714285  16.88888888888889 9.642857142857142  C 16.88888888888889 7.578124999999999  16.165943287037038 5.811941964285712  14.720052083333334 4.344308035714287  C 13.27416087962963 2.876674107142856  11.534143518518519 2.142857142857142  9.5 2.142857142857142  C 7.465856481481482 2.142857142857142  5.72583912037037 2.876674107142856  4.279947916666666 4.344308035714287  C 2.8340567129629632 5.811941964285712  2.111111111111111 7.578124999999999  2.111111111111111 9.642857142857142  C 2.111111111111111 11.707589285714285  2.8340567129629632 13.47377232142857  4.279947916666666 14.94140625  Z " fill-rule="nonzero" fill="#000000" stroke="none" transform="matrix(1 0 0 1 1687 96 )" />
  </g>
</svg>